<?xml version="1.0" standalone="no"?>
<!DOCTYPE svg PUBLIC "-//W3C//DTD SVG 20010904//EN"
 "http://www.w3.org/TR/2001/REC-SVG-20010904/DTD/svg10.dtd">
<svg version="1.0" xmlns="http://www.w3.org/2000/svg"
 width="682.000000pt" height="366.000000pt" viewBox="0 0 682.000000 366.000000"
 preserveAspectRatio="xMidYMid meet">

<g transform="translate(0.000000,366.000000) scale(0.100000,-0.100000)"
fill="#000000" stroke="none">
<path d="M1575 3266 c-93 -23 -163 -63 -232 -131 -36 -36 -63 -68 -60 -72 4
-3 29 20 57 50 89 97 202 146 363 154 55 3 131 0 175 -6 154 -24 409 -101 549
-166 17 -8 34 -15 37 -15 3 0 56 -23 118 -50 61 -28 113 -48 116 -45 8 7 14 5
-198 92 -323 133 -410 162 -575 188 -107 18 -280 18 -350 1z"/>
<path d="M1249 2998 c-20 -45 -23 -71 -25 -178 l-2 -125 7 125 c6 109 11 132
34 178 15 28 23 52 18 52 -5 0 -19 -24 -32 -52z"/>
<path d="M2799 2944 c40 -19 75 -33 78 -31 4 5 -133 67 -145 66 -4 0 26 -16
67 -35z"/>
<path d="M2895 2900 c3 -5 8 -10 11 -10 2 0 4 5 4 10 0 6 -5 10 -11 10 -5 0
-7 -4 -4 -10z"/>
<path d="M2950 2880 c8 -5 20 -10 25 -10 6 0 3 5 -5 10 -8 5 -19 10 -25 10 -5
0 -3 -5 5 -10z"/>
<path d="M2991 2866 c13 -12 169 -86 180 -85 14 0 -158 88 -175 89 -5 0 -7 -2
-5 -4z"/>
<path d="M3210 2765 c14 -8 30 -14 35 -14 6 0 -1 6 -15 14 -14 8 -29 14 -35
14 -5 0 1 -6 15 -14z"/>
<path d="M3280 2735 c14 -8 30 -14 35 -14 6 0 -1 6 -15 14 -14 8 -29 14 -35
14 -5 0 1 -6 15 -14z"/>
<path d="M3370 2695 c25 -13 52 -24 60 -24 16 1 -78 48 -95 48 -5 0 10 -11 35
-24z"/>
<path d="M1232 2670 c0 -14 2 -19 5 -12 2 6 2 18 0 25 -3 6 -5 1 -5 -13z"/>
<path d="M3480 2650 c8 -5 20 -10 25 -10 6 0 3 5 -5 10 -8 5 -19 10 -25 10 -5
0 -3 -5 5 -10z"/>
<path d="M1245 2610 c9 -40 44 -130 44 -114 1 13 -39 137 -46 144 -3 3 -2 -11
2 -30z"/>
<path d="M3520 2634 c0 -6 65 -34 77 -34 9 1 -58 39 -69 40 -5 0 -8 -2 -8 -6z"/>
<path d="M2103 2623 c26 -2 68 -2 95 0 26 2 4 3 -48 3 -52 0 -74 -1 -47 -3z"/>
<path d="M2008 2613 c6 -2 18 -2 25 0 6 3 1 5 -13 5 -14 0 -19 -2 -12 -5z"/>
<path d="M2273 2613 c9 -2 23 -2 30 0 6 3 -1 5 -18 5 -16 0 -22 -2 -12 -5z"/>
<path d="M2338 2603 c7 -3 16 -2 19 1 4 3 -2 6 -13 5 -11 0 -14 -3 -6 -6z"/>
<path d="M3610 2596 c0 -2 7 -7 16 -10 8 -3 12 -2 9 4 -6 10 -25 14 -25 6z"/>
<path d="M2495 2569 c33 -10 65 -18 70 -18 18 1 -89 37 -110 37 -11 0 7 -8 40
-19z"/>
<path d="M3650 2581 c0 -8 41 -23 47 -17 2 1 -8 8 -22 14 -14 6 -25 8 -25 3z"/>
<path d="M3715 2550 c3 -5 11 -10 16 -10 6 0 29 -9 51 -20 23 -11 43 -18 46
-15 4 4 -103 55 -115 55 -2 0 -1 -4 2 -10z"/>
<path d="M1794 2508 l-29 -33 33 29 c17 17 32 31 32 33 0 8 -8 1 -36 -29z"/>
<path d="M2638 2533 c7 -3 16 -2 19 1 4 3 -2 6 -13 5 -11 0 -14 -3 -6 -6z"/>
<path d="M3860 2485 c14 -7 27 -11 30 -9 6 7 -22 24 -40 23 -9 0 -5 -6 10 -14z"/>
<path d="M1290 2475 c0 -5 5 -17 10 -25 5 -8 10 -10 10 -5 0 6 -5 17 -10 25
-5 8 -10 11 -10 5z"/>
<path d="M3900 2477 c10 -11 200 -95 200 -89 0 5 -41 26 -92 47 -110 48 -114
49 -108 42z"/>
<path d="M1715 2399 c-4 -6 -5 -12 -2 -15 2 -3 7 2 10 11 7 17 1 20 -8 4z"/>
<path d="M1330 2385 c0 -8 61 -115 66 -115 10 0 -42 107 -57 115 -5 4 -9 4 -9
0z"/>
<path d="M4140 2370 c8 -5 20 -10 25 -10 6 0 3 5 -5 10 -8 5 -19 10 -25 10 -5
0 -3 -5 5 -10z"/>
<path d="M4245 2325 c66 -35 95 -46 95 -37 0 4 -26 18 -58 31 -83 34 -94 36
-37 6z"/>
<path d="M1676 2279 c-8 -44 -8 -147 2 -152 4 -3 8 37 8 89 1 52 0 94 -1 94
-1 0 -5 -14 -9 -31z"/>
<path d="M4400 2265 c0 -7 153 -76 158 -70 3 2 -6 9 -19 14 -13 5 -50 21 -81
35 -32 14 -58 24 -58 21z"/>
<path d="M1409 2245 c5 -11 17 -29 26 -40 l16 -20 -10 20 c-5 11 -17 29 -26
40 l-16 20 10 -20z"/>
<path d="M3718 2243 c7 -3 16 -2 19 1 4 3 -2 6 -13 5 -11 0 -14 -3 -6 -6z"/>
<path d="M3758 2233 c7 -3 16 -2 19 1 4 3 -2 6 -13 5 -11 0 -14 -3 -6 -6z"/>
<path d="M3868 2203 c7 -3 16 -2 19 1 4 3 -2 6 -13 5 -11 0 -14 -3 -6 -6z"/>
<path d="M4590 2180 c0 -9 39 -25 46 -18 2 3 -7 10 -21 16 -14 6 -25 7 -25 2z"/>
<path d="M1457 2169 c7 -7 15 -10 18 -7 3 3 -2 9 -12 12 -14 6 -15 5 -6 -5z"/>
<path d="M4074 2149 c33 -11 61 -17 64 -15 5 5 -96 37 -112 35 -6 -1 16 -10
48 -20z"/>
<path d="M4670 2145 c14 -8 30 -14 35 -14 6 0 -1 6 -15 14 -14 8 -29 14 -35
14 -5 0 1 -6 15 -14z"/>
<path d="M4720 2126 c0 -8 112 -56 129 -56 9 1 -15 14 -52 30 -71 31 -77 33
-77 26z"/>
<path d="M1520 2085 c13 -14 25 -25 27 -25 2 0 -4 11 -13 25 -9 14 -21 25 -27
25 -6 0 0 -11 13 -25z"/>
<path d="M1681 2095 c1 -11 5 -31 9 -45 8 -24 8 -24 9 5 0 17 -4 37 -9 45 -8
12 -10 11 -9 -5z"/>
<path d="M4310 2089 c0 -5 9 -9 20 -9 11 0 20 2 20 4 0 2 -9 6 -20 9 -11 3
-20 1 -20 -4z"/>
<path d="M4376 2071 c5 -4 23 -11 39 -15 l30 -6 -25 15 c-27 16 -60 21 -44 6z"/>
<path d="M4498 2033 c7 -3 16 -2 19 1 4 3 -2 6 -13 5 -11 0 -14 -3 -6 -6z"/>
<path d="M4945 2032 c15 -15 125 -62 125 -54 0 4 -12 13 -27 19 -16 6 -46 18
-68 28 -22 9 -35 12 -30 7z"/>
<path d="M4538 2023 c7 -3 16 -2 19 1 4 3 -2 6 -13 5 -11 0 -14 -3 -6 -6z"/>
<path d="M1700 2009 c0 -16 51 -152 55 -147 3 3 -44 150 -51 157 -2 2 -4 -2
-4 -10z"/>
<path d="M4608 2003 c7 -3 16 -2 19 1 4 3 -2 6 -13 5 -11 0 -14 -3 -6 -6z"/>
<path d="M4710 1980 c8 -5 24 -9 35 -9 l20 0 -20 9 c-11 5 -27 9 -35 9 -13 1
-13 0 0 -9z"/>
<path d="M4785 1960 c11 -5 27 -9 35 -9 9 0 8 4 -5 9 -11 5 -27 9 -35 9 -9 0
-8 -4 5 -9z"/>
<path d="M5144 1946 c11 -9 24 -16 30 -16 12 0 7 5 -24 19 -24 11 -24 11 -6
-3z"/>
<path d="M5220 1915 c0 -5 48 -31 85 -45 14 -5 25 -6 25 -1 0 5 -8 11 -17 14
-10 3 -35 12 -55 21 -21 9 -38 14 -38 11z"/>
<path d="M1710 1853 c0 -16 56 -64 65 -56 4 5 6 1 2 -9 -3 -9 2 -23 12 -32 29
-26 34 -18 12 17 -11 17 -25 31 -30 30 -5 -2 -21 11 -35 28 -14 17 -26 27 -26
22z"/>
<path d="M1760 1841 c0 -6 4 -13 10 -16 6 -3 7 1 4 9 -7 18 -14 21 -14 7z"/>
<path d="M5390 1840 c8 -5 20 -10 25 -10 6 0 3 5 -5 10 -8 5 -19 10 -25 10 -5
0 -3 -5 5 -10z"/>
<path d="M5444 1816 c11 -9 24 -16 30 -16 12 0 7 5 -24 19 -24 11 -24 11 -6
-3z"/>
<path d="M5499 1792 c11 -8 11 -10 0 -15 -8 -4 0 -4 16 -1 22 4 26 3 16 -4
-11 -8 -5 -13 25 -21 89 -23 98 -21 37 8 -66 31 -119 50 -94 33z"/>
</g>
</svg>
